<?xml version="1.0" encoding="UTF-8" standalone="no"?>
<svg
   xmlns:dc="http://purl.org/dc/elements/1.1/"
   xmlns:cc="http://creativecommons.org/ns#"
   xmlns:rdf="http://www.w3.org/1999/02/22-rdf-syntax-ns#"
   xmlns:svg="http://www.w3.org/2000/svg"
   xmlns="http://www.w3.org/2000/svg"
   xmlns:sodipodi="http://sodipodi.sourceforge.net/DTD/sodipodi-0.dtd"
   xmlns:inkscape="http://www.inkscape.org/namespaces/inkscape"
   inkscape:version="1.0 (4035a4fb49, 2020-05-01)"
   sodipodi:docname="body.svg"
   version="1.1"
   viewBox="0 0 100 83.548516"
   height="83.548515"
   width="100"
   data-name="Layer 1"
   id="bea23e6e-af5d-418d-9f98-e166edf04ad5">
  <metadata
     id="metadata63">
    <rdf:RDF>
      <cc:Work
         rdf:about="">
        <dc:format>image/svg+xml</dc:format>
        <dc:type
           rdf:resource="http://purl.org/dc/dcmitype/StillImage" />
        <dc:title></dc:title>
      </cc:Work>
    </rdf:RDF>
  </metadata>
  <defs
     id="defs61" />
  <sodipodi:namedview
     inkscape:current-layer="bea23e6e-af5d-418d-9f98-e166edf04ad5"
     inkscape:window-maximized="1"
     inkscape:window-y="-8"
     inkscape:window-x="-8"
     inkscape:cy="71.816929"
     inkscape:cx="84.504276"
     inkscape:zoom="2.9081785"
     showgrid="false"
     id="namedview59"
     inkscape:window-height="837"
     inkscape:window-width="1600"
     inkscape:pageshadow="2"
     inkscape:pageopacity="0"
     guidetolerance="10"
     gridtolerance="10"
     objecttolerance="10"
     borderopacity="1"
     bordercolor="#666666"
     pagecolor="#ffffff" />
  <g
     transform="matrix(0.10365806,0,0,0.10365806,3.1097418e-6,0)"
     id="g919">
    <path
       d="m 327.05924,550.68732 16.47283,9.46591 a 13.21787,13.21787 0 0 0 18.98413,-6.87915 v 0 a 13.21785,13.21785 0 0 0 -11.67273,-17.77919 l -19.94851,-1.097 -60.0914,-18.18889 -9.68789,-36.27347 -25.33312,14.22993 17.41875,41.23932 z"
       transform="translate(-117.64486,-46.99859)"
       fill="#ffb8b8"
       id="path2" />
    <path
       d="m 248.52,362.41877 c -3.8108,4.32 -3.12293,9.51645 -0.34752,13.735 2.77541,4.21855 7.39378,7.72855 11.4357,11.4508 2.59652,2.39116 4.99867,4.92886 6.16172,7.806 a 8.46832,8.46832 0 0 1 -1.38871,8.95551 c -2.64677,3.131 -7.57691,5.25136 -12.38725,7.0688 a 244.1299,244.1299 0 0 1 -42.408,11.67787 c 12.18063,-14.23247 18.27794,-30.26091 17.38473,-45.70051 -0.18746,-3.24025 -0.66875,-6.51051 0.46279,-9.758 a 13.25989,13.25989 0 0 1 9.08467,-7.9492 c 4.84146,-1.39017 11.21868,-0.0152 11.961,3.15719"
       transform="translate(-117.64486,-46.99859)"
       fill="#2f2e41"
       id="path4"
       style="fill:#070432;fill-opacity:1" />
    <polygon
       points="43.953,772.908 78.355,614.001 48.5,615.284 26.523,772.15 "
       fill="#ffb8b8"
       id="polygon6" />
    <polygon
       points="186.42,745.627 96.355,612.001 125.038,599.37 200.819,738.049 "
       fill="#ffb8b8"
       id="polygon8" />
    <circle
       cx="100.42729"
       cy="337.8699"
       r="27.57008"
       fill="#ffb8b8"
       id="circle10" />
    <path
       d="m 204.03482,399.3235 c 0,0 -9.85149,20.46078 -23.492,19.703 0,0 -25.76543,-10.6093 -34.1013,18.18736 l -9.09368,22.7342 120.49126,20.46078 c 0,0 -6.82026,-41.67937 -22.7342,-42.43718 0,0 -18.18736,-1.51561 -15.91394,-8.33587 2.27342,-6.82026 10.60929,-22.7342 10.60929,-22.7342 z"
       transform="translate(-117.64486,-46.99859)"
       fill="#ffb8b8"
       id="path12" />
    <path
       d="M 244.19857,503.90083 226.01121,543.30677 241,607 314,744 c 0,0 -33.61949,30.16239 -42,35 -7.26951,4.19629 -67.79,-109.55479 -70,-133 -0.72937,-7.73772 -14,149 -14,149 0,0 -50.02954,-8.2558 -64,-11 0,0 10.06518,-71.291 16,-138 4.57469,-51.42075 0.41494,-98.02176 26.14448,-120.12278 l -2.27342,-43.95279 60.62454,-2.27343 z"
       transform="translate(-117.64486,-46.99859)"
       fill="#2f2e41"
       id="path14"
       style="fill:#0b0650;fill-opacity:1" />
    <path
       d="m 150.03652,848.37651 27.82578,4.04028 a 9.2607,9.2607 0 0 0 11.5581,-4.62 v 0 a 9.26068,9.26068 0 0 0 -1.53816,-10.35916 l -11.8106,-12.71924 -8.50029,-18.34182 c -5.08375,-5.19247 -8.55881,-3.35606 -10.50161,5.17508 l -13.58848,-4.26728 -3.56285,23.94949 a 15.81137,15.81137 0 0 0 10.11811,17.14265 z"
       transform="translate(-117.64486,-46.99859)"
       fill="#2f2e41"
       id="path16"
       style="fill:#0b0650;fill-opacity:1" />
    <path
       d="m 308.63877,823.31634 28.1174,-0.0982 a 9.26068,9.26068 0 0 0 10.75247,-6.27044 v 0 a 9.26069,9.26069 0 0 0 -3.04573,-10.02007 l -13.55362,-10.8429 -11.10669,-16.89138 c -5.79247,-4.3879 -8.95947,-2.06013 -9.6258,6.664 l -14.06848,-2.22134 v 24.21306 a 15.81136,15.81136 0 0 0 12.53045,15.46723 z"
       transform="translate(-117.64486,-46.99859)"
       fill="#2f2e41"
       id="path18"
       style="fill:#0b0650;fill-opacity:1" />
    <path
       d="m 204.14642,342.48823 c -4.683,-2.04669 -10.25575,-1.24415 -14.777,1.13862 -4.52125,2.38277 -8.13367,6.1826 -11.29533,10.19793 A 86.01322,86.01322 0 0 0 159.891,402.25234 c -0.24766,4.818 -0.0153,9.91043 2.49308,14.03149 2.75651,4.52874 7.80193,7.12846 12.79953,8.89816 a 67.33042,67.33042 0 0 0 51.15114,-2.81387 181.33408,181.33408 0 0 1 -23.27937,-22.615 c -1.32458,-1.54042 -2.70952,-3.518 -2.03587,-5.43463 a 5.95382,5.95382 0 0 1 1.90922,-2.344 l 16.23212,-14.09621 -0.40869,5.7025 A 16.54522,16.54522 0 0 0 233.34021,372.707 c -0.78268,1.57966 0.71155,3.51981 2.4383,3.87512 1.72675,0.35531 3.47489,-0.35657 5.09426,-1.0534 3.92746,-1.69 8.19353,-3.70248 9.936,-7.607 a 10.91477,10.91477 0 0 0 -0.23018,-8.61518 21.66419,21.66419 0 0 0 -5.2829,-7.04327 44.18788,44.18788 0 0 0 -41.25369,-10.25651"
       transform="translate(-117.64486,-46.99859)"
       fill="#2f2e41"
       id="path20"
       style="fill:#0b0650;fill-opacity:1" />
    <path
       d="m 198.63856,546.74242 12.10544,14.64291 a 13.21785,13.21785 0 0 0 20.19089,0.21747 v 0 a 13.21786,13.21786 0 0 0 -4.69418,-20.74409 l -18.296,-8.0251 -49.89223,-38.11261 3.65218,-37.36685 -28.715,4.439 1.84543,44.72906 z"
       transform="translate(-117.64486,-46.99859)"
       fill="#ffb8b8"
       id="path22" />
    <path
       d="m 273.753,513.75231 c 0,0 -11.79947,-43.21548 -18.02464,-43.20523 -6.22517,0.0102 -14.561,-0.74755 -14.561,-0.74755 0,0 -9.85148,-28.79666 -60.62453,-19.703 -50.77305,9.09366 -28.79665,-8.33587 -43.195,-1.51561 -14.39835,6.82026 -19.703,54.56208 -19.703,54.56208 0,0 78.05408,-25.76543 94.72583,-11.3671 a 185.11783,185.11783 0 0 0 31.07007,21.97639 c 0,0 -7.57803,18.94519 30.31227,2e-5 z"
       transform="translate(-117.64486,-46.99859)"
       fill="#2f2e41"
       id="path24"
       style="fill:#0b0650;fill-opacity:1" />
    <rect
       x="120.70066"
       y="773.94745"
       width="306"
       height="2"
       fill="#3f3d56"
       id="rect26"
       style="fill:#766df4;fill-opacity:1" />
    <circle
       cx="661.70068"
       cy="243.94745"
       r="185"
       fill="#e6e6e6"
       id="circle28"
       style="fill:#766df4;fill-opacity:0.14" />
    <rect
       x="320.70065"
       y="140.94745"
       width="306"
       height="2"
       fill="#3f3d56"
       id="rect30"
       style="fill:#766df4;fill-opacity:1" />
    <rect
       x="320.70065"
       y="195.94745"
       width="601"
       height="2"
       fill="#3f3d56"
       id="rect32"
       style="fill:#766df4;fill-opacity:1" />
    <path
       d="m 854.34551,439.946 c -102.56055,0 -186,-83.43945 -186,-186 0,-102.56055 83.43945,-186 186,-186 102.56055,0 185.99999,83.43945 185.99999,186 0,102.56055 -83.43944,186 -185.99999,186 z m 0,-370 c -101.458,0 -184,82.542 -184,184 0,101.458 82.542,184 184,184 101.458,0 183.99999,-82.542 183.99999,-184 0,-101.458 -82.54198,-184 -183.99999,-184 z"
       transform="translate(-117.64486,-46.99859)"
       fill="#3f3d56"
       id="path34"
       style="fill:#766df4;fill-opacity:1" />
    <circle
       cx="719.5401"
       cy="24.420441"
       r="24.420441"
       fill="#6c63ff"
       id="circle36"
       style="fill:#766df4;fill-opacity:1" />
    <circle
       cx="551.3985"
       cy="193.85838"
       r="15.80146"
       fill="#ff6584"
       id="circle38"
       style="fill:#493df0;fill-opacity:1" />
    <circle
       cx="928.62292"
       cy="194.11826"
       r="36.087341"
       fill="#6c63ff"
       id="circle40"
       style="fill:#766df4;fill-opacity:1" />
    <path
       d="m 539.00887,383.50684 h -109.499 v 2 h 109.499 a 20.32666,20.32666 0 0 1 0,40.65332 H 373.318 a 20.32666,20.32666 0 0 1 0,-40.65332 h 6.1919 v -2 h -6.1919 a 22.32666,22.32666 0 0 0 0,44.65332 h 165.69087 a 22.32666,22.32666 0 0 0 0,-44.65332 z"
       transform="translate(-117.64486,-46.99859)"
       fill="#3f3d56"
       id="path42"
       style="fill:#766df4;fill-opacity:1" />
    <path
       d="m 539.00887,452.50684 h -109.499 v 2 h 109.499 a 20.32666,20.32666 0 0 1 0,40.65332 H 373.318 a 20.32666,20.32666 0 0 1 0,-40.65332 h 6.1919 v -2 h -6.1919 a 22.32666,22.32666 0 0 0 0,44.65332 h 165.69087 a 22.32666,22.32666 0 0 0 0,-44.65332 z"
       transform="translate(-117.64486,-46.99859)"
       fill="#3f3d56"
       id="path44"
       style="fill:#766df4;fill-opacity:1" />
    <path
       d="m 539.00887,521.50684 h -109.499 v 2 h 109.499 a 20.32666,20.32666 0 0 1 0,40.65332 H 373.318 a 20.32666,20.32666 0 0 1 0,-40.65332 h 6.1919 v -2 h -6.1919 a 22.32666,22.32666 0 0 0 0,44.65332 h 165.69087 a 22.32666,22.32666 0 0 0 0,-44.65332 z"
       transform="translate(-117.64486,-46.99859)"
       fill="#3f3d56"
       id="path46"
       style="fill:#766df4;fill-opacity:1" />
    <path
       id="be0e5baf-e5ec-4f16-9492-7d4921bb2c9b"
       data-name="Path 40"
       d="m 391.86936,378.22316 a 5.94683,5.94683 0 0 0 0,11.892 h 26.08572 a 5.94683,5.94683 0 0 0 0.19526,-11.892 q -0.0976,-0.002 -0.19526,0 z"
       transform="translate(-117.64486,-46.99859)"
       fill="#6c63ff"
       style="fill:#766df4;fill-opacity:1" />
    <path
       id="f5faaf73-4e1d-4e3d-a937-9f255bff3911"
       data-name="Path 40"
       d="m 391.86936,448.22316 a 5.94683,5.94683 0 0 0 0,11.892 h 26.08572 a 5.94683,5.94683 0 0 0 0.19526,-11.892 q -0.0976,-0.002 -0.19526,0 z"
       transform="translate(-117.64486,-46.99859)"
       fill="#ff6584"
       style="fill:#493df0;fill-opacity:1" />
    <path
       id="bdcbecaa-58f8-42a6-983f-c76dd899917c"
       data-name="Path 40"
       d="m 391.86936,516.22316 a 5.94683,5.94683 0 0 0 0,11.89205 h 26.08572 a 5.94683,5.94683 0 0 0 0.19526,-11.89205 q -0.0976,-0.002 -0.19526,0 z"
       transform="translate(-117.64486,-46.99859)"
       fill="#3f3d56" />
    <path
       id="bbcd49d7-9efc-41e7-bbf8-c6009cf796dd"
       data-name="Path 40"
       d="m 381.52292,399.88748 a 5.94682,5.94682 0 0 0 0,11.892 h 149.08573 a 5.94682,5.94682 0 1 0 0.19525,-11.892 q -0.0976,-0.002 -0.19525,0 z"
       transform="translate(-117.64486,-46.99859)"
       fill="#e6e6e6"
       style="fill:#766df4;fill-opacity:0.14" />
    <path
       id="b24c44c6-9087-448d-956a-9230903e4c37"
       data-name="Path 40"
       d="m 381.52292,468.88748 a 5.94682,5.94682 0 0 0 0,11.892 h 149.08573 a 5.94682,5.94682 0 1 0 0.19525,-11.892 q -0.0976,-0.002 -0.19525,0 z"
       transform="translate(-117.64486,-46.99859)"
       fill="#e6e6e6"
       style="fill:#766df4;fill-opacity:0.14" />
    <path
       id="f49c9183-be6f-4e21-8191-a3b3cb38d75e"
       data-name="Path 40"
       d="m 381.52292,537.88748 a 5.94682,5.94682 0 0 0 0,11.892 h 149.08573 a 5.94682,5.94682 0 1 0 0.19525,-11.892 q -0.0976,-0.002 -0.19525,0 z"
       transform="translate(-117.64486,-46.99859)"
       fill="#e6e6e6"
       style="fill:#766df4;fill-opacity:0.14" />
    <path
       d="m 532.99414,761.25207 a 102.53212,102.53212 0 0 0 -8.998,-28.88666 l -0.64307,-1.32977 -4.77637,5.29583 3.53907,-7.88836 -0.23145,-0.45783 a 188.61182,188.61182 0 0 0 -10.36767,-17.98865 l -0.70166,-1.07446 -0.936,1.03778 0.65527,-1.46106 -0.32812,-0.49243 c -4.686,-7.02862 -8.28613,-11.47388 -8.32178,-11.51861 l -1.01807,-1.25251 -0.65478,1.49359 c -0.12012,0.27375 -12.019,27.6922 -13.59522,54.78608 l -0.0249,0.42224 8.0083,9.68011 -8.167,-5.12695 0.0142,1.8609 a 79.264,79.264 0 0 0 0.64893,9.5224 q 0.53952,4.07511 1.27,7.95691 a 4.2433,4.2433 0 0 1 2.17163,0.67737 q -0.84623,-4.33759 -1.45966,-8.91614 c -0.31543,-2.43677 -0.51416,-4.91229 -0.59326,-7.38062 L 504.2814,770.12939 488.6377,751.22 c 1.42432,-22.907 10.26465,-45.98608 12.74658,-52.07757 1.332,1.7276 3.84473,5.08117 6.85059,9.561 l -5.46436,12.182 7.79053,-8.63819 a 186.51624,186.51624 0 0 1 9.32178,16.25184 l -8.41455,18.75792 11.377,-12.61548 a 100.38218,100.38218 0 0 1 8.1709,26.91992 c 1.99121,15.04108 1.60254,29.49 -1.09473,40.6861 -2.5835,10.725 -7.13672,17.31714 -12.49268,18.0874 a 8.46568,8.46568 0 0 1 -3.30035,-0.19617 4.89829,4.89829 0 0 1 -2.96075,0.90357 h -0.29193 a 11.607,11.607 0 0 0 5.42364,1.45672 9.83945,9.83945 0 0 0 1.40283,-0.10076 c 6.29688,-0.90448 11.32569,-7.88123 14.15918,-19.643 2.75776,-11.44952 3.16162,-26.1803 1.13276,-41.50323 z"
       transform="translate(-117.64486,-46.99859)"
       fill="#3f3d56"
       id="path54"
       style="fill:#766df4;fill-opacity:1" />
    <path
       d="m 515.37061,821.708 c -8.23682,0 -20.11279,-4.53125 -31.89209,-12.7793 a 50.89,50.89 0 0 1 -4.957,-3.98535 l -1.31934,-1.20508 4.98828,-1.43652 -6.64209,-0.24316 -0.28027,-0.29395 c -12.4502,-13.03906 -20.19775,-31.457 -20.2749,-31.64063 l -0.60547,-1.45507 1.57422,0.0713 c 0.15674,0.007 3.89941,0.18359 9.52441,0.98144 l 0.35059,0.0498 v -0.003 l 1.2334,0.1875 a 123.75355,123.75355 0 0 1 13.62939,2.86425 l 0.479,0.12989 1.49659,3.68652 -0.22705,-3.30664 1.373,0.39648 a 66.22881,66.22881 0 0 1 18.32764,8.49707 c 17.91357,12.54395 27.82568,28.22168 22.58594,35.70411 -1.79101,2.55761 -5.08786,3.77927 -9.36425,3.78027 z m -34.14307,-17.04785 c 1.09424,0.92676 2.23291,1.80859 3.40088,2.63183 16.40674,11.48926 34.023,15.834 38.46778,9.48926 4.44384,-6.3457 -5.66553,-21.415 -22.07471,-32.90527 a 64.1612,64.1612 0 0 0 -16.38086,-7.81446 l 0.88721,12.917 -5.82813,-14.35551 c -3.83838,-1.01856 -7.76514,-1.85645 -11.69629,-2.4961 l 0.644,9.375 -4.01123,-9.87988 c -3.10791,-0.42676 -5.61328,-0.6582 -7.1372,-0.77637 2.07763,4.5625 8.94287,18.65137 18.93652,29.24415 l 18.33008,0.67089 z"
       transform="translate(-117.64486,-46.99859)"
       fill="#3f3d56"
       id="path56"
       style="fill:#766df4;fill-opacity:1" />
  </g>
</svg>
